<svg width="15" height="9" viewBox="0 0 15 9" fill="none" xmlns="http://www.w3.org/2000/svg">
<path fill-rule="evenodd" clip-rule="evenodd" d="M14.6558 0.717494C14.7601 0.375963 14.6558 0.125 14.1596 0.125H12.5186C12.1013 0.125 11.909 0.341794 11.8046 0.580851C11.8046 0.580851 10.9701 2.5788 9.78789 3.87657C9.40545 4.25225 9.23157 4.37182 9.02295 4.37182C8.91864 4.37182 8.76213 4.25225 8.76213 3.91075V0.717494C8.76213 0.307656 8.64657 0.125 8.29882 0.125H5.72009C5.45934 0.125 5.30252 0.315213 5.30252 0.495488C5.30252 0.884007 5.89359 0.973607 5.95452 2.06651V4.44013C5.95452 4.96051 5.85884 5.05488 5.65021 5.05488C5.0939 5.05488 3.74067 3.04802 2.93808 0.751632C2.7808 0.305294 2.62304 0.125 2.20365 0.125H0.562637C0.0937776 0.125 0 0.341794 0 0.580851C0 1.00778 0.556339 3.12525 2.5904 5.92576C3.94644 7.83826 5.85699 8.87501 7.59551 8.87501C8.63863 8.87501 8.7677 8.64476 8.7677 8.24813V6.80263C8.7677 6.34213 8.86651 6.25019 9.19682 6.25019C9.4402 6.25019 9.85745 6.36976 10.831 7.29188C11.9437 8.38476 12.1271 8.87501 12.753 8.87501H14.394C14.8628 8.87501 15.0973 8.64476 14.962 8.19032C14.814 7.73744 14.2828 7.08038 13.578 6.30144C13.1955 5.85744 12.6217 5.37932 12.4478 5.14019C12.2045 4.83288 12.274 4.69625 12.4478 4.42307C12.4478 4.42307 14.4472 1.65667 14.6558 0.717494Z" fill="white"/>
</svg>
