<svg width="12" height="13" viewBox="0 0 12 13" fill="none" xmlns="http://www.w3.org/2000/svg">
<path d="M0.00240803 12.5L0.813608 9.51919C0.279091 8.60291 -0.00173438 7.56079 8.05934e-06 6.5C8.05934e-06 3.1862 2.68621 0.5 6 0.5C9.3138 0.5 12 3.1862 12 6.5C12 9.81379 9.3138 12.5 6 12.5C4.93967 12.5017 3.898 12.2211 2.98201 11.687L0.00240803 12.5ZM3.83461 3.6848C3.75712 3.68961 3.68141 3.71002 3.61201 3.7448C3.54692 3.78166 3.4875 3.82773 3.43561 3.8816C3.36361 3.9494 3.32281 4.0082 3.27901 4.0652C3.05725 4.35379 2.93797 4.70805 2.94001 5.072C2.94121 5.366 3.01801 5.6522 3.13801 5.9198C3.38341 6.461 3.78721 7.034 4.32061 7.565C4.44901 7.6928 4.57441 7.8212 4.7094 7.9406C5.37144 8.52347 6.16036 8.94382 7.0134 9.16819L7.3548 9.22039C7.4658 9.22639 7.5768 9.21799 7.6884 9.21259C7.86315 9.20357 8.03377 9.15626 8.1882 9.07399C8.2878 9.0212 8.3346 8.99479 8.418 8.94199C8.418 8.94199 8.4438 8.92519 8.493 8.88799C8.574 8.82799 8.6238 8.78539 8.691 8.71519C8.7408 8.6636 8.784 8.60299 8.817 8.53399C8.8638 8.43619 8.9106 8.24959 8.9298 8.09419C8.9442 7.97539 8.94 7.9106 8.9382 7.8704C8.9358 7.8062 8.8824 7.7396 8.8242 7.7114L8.475 7.5548C8.475 7.5548 7.953 7.3274 7.6344 7.1822C7.60081 7.16755 7.56481 7.15921 7.5282 7.1576C7.48715 7.15338 7.44567 7.158 7.40655 7.17114C7.36743 7.18429 7.33158 7.20565 7.3014 7.2338V7.2326C7.2984 7.2326 7.2582 7.2668 6.8244 7.7924C6.7995 7.82585 6.76521 7.85114 6.72589 7.86503C6.68656 7.87892 6.64399 7.88079 6.6036 7.8704C6.56451 7.85994 6.52621 7.84671 6.489 7.8308C6.4146 7.7996 6.3888 7.7876 6.3378 7.7654L6.3348 7.7642C5.99155 7.61433 5.67374 7.4119 5.3928 7.1642C5.3172 7.0982 5.247 7.0262 5.175 6.9566C4.93895 6.73054 4.73323 6.4748 4.563 6.1958L4.5276 6.1388C4.50218 6.1005 4.48162 6.05918 4.46641 6.0158C4.44361 5.9276 4.50301 5.8568 4.50301 5.8568C4.50301 5.8568 4.64881 5.6972 4.71661 5.6108C4.77306 5.53899 4.82573 5.46429 4.8744 5.387C4.9452 5.273 4.9674 5.156 4.9302 5.0654C4.76221 4.655 4.5882 4.2464 4.40941 3.8408C4.37401 3.7604 4.26901 3.7028 4.17361 3.6914C4.14121 3.6878 4.10881 3.6842 4.07641 3.6818C3.99583 3.67779 3.91509 3.6792 3.83461 3.6848Z" fill="white"/>
</svg>
