<svg width="18" height="13" viewBox="0 0 18 13" fill="none" xmlns="http://www.w3.org/2000/svg">
<path d="M17.2275 2.35088C17.0236 1.62674 16.4588 1.05882 15.7315 0.858057C14.3922 0.500017 9.00818 0.500017 9.00818 0.500017C9.00818 0.500017 3.63435 0.491428 2.2811 0.858057C1.55751 1.05935 0.990116 1.62674 0.788282 2.35088C0.53438 3.72345 0.408234 5.11267 0.414139 6.50833C0.411455 7.89486 0.537064 9.28193 0.788282 10.6459C0.990116 11.3701 1.55751 11.938 2.2811 12.142C3.6204 12.5 9.00818 12.5 9.00818 12.5C9.00818 12.5 14.3788 12.5 15.7315 12.142C16.4588 11.938 17.0236 11.3706 17.2275 10.6459C17.4739 9.28193 17.5942 7.89486 17.5856 6.50833C17.5942 5.11267 17.4766 3.72345 17.2275 2.35088ZM7.2883 9.07795V3.92743L11.77 6.50833L7.2883 9.07795Z" fill="white"/>
</svg>
